<svg xmlns="http://www.w3.org/2000/svg" width="4473" height="2425" viewBox="0 0 4473 2425" role="img" aria-labelledby="title desc">
<title id="title">Agent Harness and Engineering</title>
<desc id="desc">Visual sketch of an AI agent harness with memory, RAG, tool calls, guardrails, evals, traces, observability, gates, and release flow.</desc>
<defs>
<marker id="arrowhead" markerWidth="12" markerHeight="8" refX="10" refY="4" orient="auto" markerUnits="strokeWidth"><path d="M0,0 L12,4 L0,8 Z" fill="#1e1e1e"/></marker>
<style>text{font-family:Inter, ui-sans-serif, system-ui, -apple-system, BlinkMacSystemFont, "Segoe UI", sans-serif; fill:#1e1e1e;} .label{paint-order:stroke; stroke:#fff; stroke-width:3px; stroke-linejoin:round;}</style>
</defs>
<rect width="100%" height="100%" fill="#ffffff"/>
<rect x="1906.32" y="1230.30" width="139.36" height="52.92" rx="8" ry="8" stroke="#1e1e1e" fill="#b2f2bb" stroke-width="3.00" opacity="1.00" />
<polyline points="1522.87,1243.59 1881.71,1247.74" stroke="#1971c2" fill="none" stroke-width="3.00" opacity="1.00"  marker-end="url(#arrowhead)"/>
<rect x="721.03" y="1247.59" width="135.65" height="95.65" rx="8" ry="8" stroke="#1e1e1e" fill="transparent" stroke-width="3.00" opacity="1.00" />
<rect x="453.99" y="1254.26" width="138.07" height="96.52" rx="8" ry="8" stroke="#1e1e1e" fill="transparent" stroke-width="3.00" opacity="1.00" />
<rect x="370.18" y="1534.32" width="200.27" height="178.26" rx="8" ry="8" stroke="#1e1e1e" fill="transparent" stroke-width="3.00" opacity="1.00" />
<rect x="692.74" y="1531.11" width="191.05" height="180.89" rx="8" ry="8" stroke="#1e1e1e" fill="transparent" stroke-width="3.00" opacity="1.00" />
<rect x="1052.58" y="1540.78" width="202.73" height="165.91" rx="8" ry="8" stroke="#1e1e1e" fill="transparent" stroke-width="3.00" opacity="1.00" />
<polyline points="776.91,1345.01 496.54,1525.41" stroke="#1e1e1e" fill="none" stroke-width="3.00" opacity="1.00"  marker-end="url(#arrowhead)"/>
<polyline points="788.69,1344.76 790.77,1530.42" stroke="#1e1e1e" fill="none" stroke-width="3.00" opacity="1.00"  marker-end="url(#arrowhead)"/>
<polyline points="811.79,1343.82 1156.94,1538.47" stroke="#1e1e1e" fill="none" stroke-width="3.00" opacity="1.00"  marker-end="url(#arrowhead)"/>
<polyline points="1930.25,1355.70 1508.96,1829.13" stroke="#1e1e1e" fill="none" stroke-width="3.00" opacity="1.00"  marker-end="url(#arrowhead)"/>
<polyline points="780.66,1755.47 780.95,1841.53 780.67,1851.32 785.20,1855.56 800.98,1859.14 827.64,1860.25 853.11,1858.47 866.65,1854.21 868.56,1850.62 868.83,1842.73 868.62,1762.69 868.14,1755.13 862.48,1750.90 850.55,1748.45 823.37,1746.40 801.57,1747.62 784.43,1751.79 780.61,1755.42 780.66,1755.47" stroke="#0a11d3" fill="none" stroke-width="1.50" opacity="1.00"  transform="rotate(1.001 824.77 1812.40)"/>
<polyline points="780.97,1820.79 783.30,1824.70 793.33,1827.97 806.68,1829.96 827.60,1830.14 852.01,1828.88 866.26,1824.28 869.28,1820.34" stroke="#0a11d3" fill="none" stroke-width="1.50" opacity="1.00"  transform="rotate(1.001 825.12 1825.69)"/>
<polyline points="780.46,1787.68 782.79,1791.59 792.82,1794.87 806.17,1796.85 827.09,1797.03 851.50,1795.77 865.75,1791.17 868.77,1787.23" stroke="#0a11d3" fill="none" stroke-width="1.50" opacity="1.00"  transform="rotate(1.001 824.62 1792.58)"/>
<ellipse cx="823.79" cy="1756.29" rx="43.83" ry="8.86" stroke="#0a11d3" fill="#fff" stroke-width="1.50" opacity="1.00"  transform="rotate(1.001 823.79 1756.29)"/>
<ellipse cx="857.49" cy="1779.57" rx="6.42" ry="6.97" stroke="#0a11d3" fill="#fff" stroke-width="1.50" opacity="1.00"  transform="rotate(1.001 857.49 1779.57)"/>
<ellipse cx="856.96" cy="1810.17" rx="6.42" ry="6.97" stroke="#0a11d3" fill="#fff" stroke-width="1.50" opacity="1.00"  transform="rotate(1.001 856.96 1810.17)"/>
<ellipse cx="856.38" cy="1843.42" rx="6.42" ry="6.97" stroke="#0a11d3" fill="#fff" stroke-width="1.50" opacity="1.00"  transform="rotate(1.001 856.38 1843.42)"/>
<ellipse cx="1012.12" cy="2109.34" rx="130.59" ry="73.44" stroke="#e03131" fill="#ffc9c9" stroke-width="3.00" opacity="1.00"  transform="rotate(0.446 1012.12 2109.34)"/>
<polyline points="955.50,2040.42 803.05,1874.14" stroke="#1e1e1e" fill="none" stroke-width="3.00" opacity="1.00"  marker-end="url(#arrowhead)"/>
<polyline points="1123.58,1753.39 1123.87,1839.44 1123.59,1849.24 1128.12,1853.47 1143.89,1857.05 1170.56,1858.17 1196.03,1856.39 1209.57,1852.13 1211.48,1848.54 1211.75,1840.65 1211.54,1760.61 1211.06,1753.05 1205.40,1748.82 1193.47,1746.37 1166.29,1744.31 1144.49,1745.54 1127.35,1749.70 1123.53,1753.34 1123.58,1753.39" stroke="#0a11d3" fill="none" stroke-width="1.50" opacity="1.00"  transform="rotate(1.001 1167.69 1810.32)"/>
<polyline points="1123.89,1818.71 1126.22,1822.61 1136.25,1825.89 1149.60,1827.88 1170.52,1828.06 1194.93,1826.79 1209.18,1822.20 1212.20,1818.26" stroke="#0a11d3" fill="none" stroke-width="1.50" opacity="1.00"  transform="rotate(1.001 1168.04 1823.61)"/>
<polyline points="1123.38,1785.60 1125.71,1789.51 1135.74,1792.78 1149.09,1794.77 1170.01,1794.95 1194.42,1793.68 1208.67,1789.09 1211.69,1785.15" stroke="#0a11d3" fill="none" stroke-width="1.50" opacity="1.00"  transform="rotate(1.001 1167.53 1790.50)"/>
<ellipse cx="1166.71" cy="1754.21" rx="43.83" ry="8.86" stroke="#0a11d3" fill="#fff" stroke-width="1.50" opacity="1.00"  transform="rotate(1.001 1166.71 1754.21)"/>
<ellipse cx="1200.41" cy="1777.49" rx="6.42" ry="6.97" stroke="#0a11d3" fill="#fff" stroke-width="1.50" opacity="1.00"  transform="rotate(1.001 1200.41 1777.49)"/>
<ellipse cx="1199.88" cy="1808.08" rx="6.42" ry="6.97" stroke="#0a11d3" fill="#fff" stroke-width="1.50" opacity="1.00"  transform="rotate(1.001 1199.88 1808.08)"/>
<ellipse cx="1199.30" cy="1841.34" rx="6.42" ry="6.97" stroke="#0a11d3" fill="#fff" stroke-width="1.50" opacity="1.00"  transform="rotate(1.001 1199.30 1841.34)"/>
<polygon points="1484.27,1826.52 1633.38,1936.52 1484.27,2046.52 1335.16,1936.52" stroke="#1e1e1e" fill="transparent" stroke-width="3.00" opacity="1.00" />
<polyline points="1429.87,2022.50 1119.88,2066.89" stroke="#1e1e1e" fill="none" stroke-width="3.00" opacity="1.00"  marker-end="url(#arrowhead)"/>
<ellipse cx="1169.53" cy="1294.53" rx="117.25" ry="42.50" stroke="#e03131" fill="transparent" stroke-width="3.00" opacity="1.00" />
<polyline points="1170.31,1238.03 1127.22,1143.71" stroke="#1e1e1e" fill="none" stroke-width="3.00" opacity="1.00"  marker-end="url(#arrowhead)"/>
<rect x="1036.57" y="996.71" width="399.86" height="139.47" rx="8" ry="8" stroke="#1e1e1e" fill="transparent" stroke-width="3.00" opacity="1.00" />
<polyline points="1334.16,1136.51 1233.11,1243.89" stroke="#1e1e1e" fill="none" stroke-width="3.00" opacity="1.00"  marker-end="url(#arrowhead)"/>
<rect x="992.01" y="1003.56" width="497.80" height="370.88" rx="8" ry="8" stroke="#f08c00" fill="transparent" stroke-width="3.00" opacity="1.00" />
<rect x="80.00" y="731.17" width="2053.09" height="1613.44" rx="8" ry="8" stroke="#e03131" fill="transparent" stroke-width="3.00" opacity="1.00" />
<polygon points="4392.40,1573.73 4392.70,1573.85 4392.40,1573.98 4392.09,1573.85" stroke="#f08c00" fill="transparent" stroke-width="3.00" opacity="1.00" />
<rect x="125.76" y="80.00" width="1016.85" height="181.46" rx="8" ry="8" stroke="#f08c00" fill="transparent" stroke-width="3.00" opacity="1.00" />
<rect x="2573.26" y="1069.10" width="265.28" height="169.13" rx="8" ry="8" stroke="#1971c2" fill="transparent" stroke-width="3.00" opacity="1.00" />
<rect x="3052.27" y="1087.51" width="265.28" height="169.13" rx="8" ry="8" stroke="#1971c2" fill="transparent" stroke-width="3.00" opacity="1.00" />
<rect x="3393.09" y="1093.97" width="265.28" height="169.13" rx="8" ry="8" stroke="#1971c2" fill="transparent" stroke-width="3.00" opacity="1.00" />
<rect x="3108.93" y="1419.65" width="432.12" height="134.31" rx="8" ry="8" stroke="#1971c2" fill="transparent" stroke-width="3.00" opacity="1.00" />
<polygon points="3328.26,1602.10 3467.34,1665.33 3328.26,1728.55 3189.18,1665.33" stroke="#1e1e1e" fill="transparent" stroke-width="3.00" opacity="1.00" />
<rect x="2507.07" y="919.17" width="1252.81" height="1146.50" rx="8" ry="8" stroke="#1971c2" fill="transparent" stroke-width="3.00" opacity="1.00" />
<rect x="3110.17" y="1787.53" width="467.90" height="123.53" rx="8" ry="8" stroke="#1971c2" fill="transparent" stroke-width="3.00" opacity="1.00" />
<rect x="3023.42" y="1032.24" width="699.69" height="318.60" rx="8" ry="8" stroke="#1971c2" fill="transparent" stroke-width="3.00" opacity="1.00" stroke-dasharray="10 8"/>
<text class="label" x="1976.00" y="1264.26" font-size="20.0" text-anchor="middle">
<tspan x="1976.00" dy="0.00">Reply</tspan>
</text>
<text class="label" x="1271.51" y="1293.66" font-size="20.0" text-anchor="middle">
<tspan x="1271.51" dy="0.00">End Loop</tspan>
<tspan x="1271.51" dy="25.00">Guardrail</tspan>
</text>
<text class="label" x="788.86" y="1290.42" font-size="20.0" text-anchor="middle">
<tspan x="788.86" dy="0.00">Context</tspan>
<tspan x="788.86" dy="25.00">RAM</tspan>
</text>
<text class="label" x="523.03" y="1310.02" font-size="20.0" text-anchor="middle">
<tspan x="523.03" dy="0.00">Prompt</tspan>
</text>
<text class="label" x="375.18" y="1559.32" font-size="20.0" text-anchor="start">
<tspan x="375.18" dy="0.00">Procedural</tspan>
<tspan x="375.18" dy="25.00">Memory</tspan>
<tspan x="375.18" dy="25.00">(Files, Text) </tspan>
<tspan x="375.18" dy="25.00"></tspan>
<tspan x="375.18" dy="25.00">- How to act</tspan>
<tspan x="375.18" dy="25.00">-skills</tspan>
<tspan x="375.18" dy="25.00">instructions</tspan>
</text>
<text class="label" x="697.74" y="1556.11" font-size="20.0" text-anchor="start">
<tspan x="697.74" dy="0.00">Semantic</tspan>
<tspan x="697.74" dy="25.00">Memory</tspan>
<tspan x="697.74" dy="25.00">(Vector Store)</tspan>
<tspan x="697.74" dy="25.00"></tspan>
<tspan x="697.74" dy="25.00">- durable</tspan>
<tspan x="697.74" dy="25.00">facts</tspan>
<tspan x="697.74" dy="25.00">- user profile</tspan>
</text>
<text class="label" x="1057.58" y="1565.78" font-size="20.0" text-anchor="start">
<tspan x="1057.58" dy="0.00">Episodic Memory</tspan>
<tspan x="1057.58" dy="25.00"></tspan>
<tspan x="1057.58" dy="25.00">- dated events</tspan>
<tspan x="1057.58" dy="25.00">- past chat</tspan>
<tspan x="1057.58" dy="25.00">history</tspan>
</text>
<text class="label" x="637.78" y="1442.39" font-size="20.0" text-anchor="middle">
<tspan x="637.78" dy="0.00">Skill.md</tspan>
</text>
<text class="label" x="789.81" y="1445.09" font-size="20.0" text-anchor="middle">
<tspan x="789.81" dy="0.00">RAG(top-k</tspan>
<tspan x="789.81" dy="25.00">Search)</tspan>
</text>
<text class="label" x="983.15" y="1435.46" font-size="20.0" text-anchor="middle">
<tspan x="983.15" dy="0.00">RAG for revelance +</tspan>
<tspan x="983.15" dy="25.00">SQL Recency</tspan>
</text>
<text class="label" x="1334.40" y="1533.18" font-size="20.0" text-anchor="middle">
<tspan x="1334.40" dy="0.00">Save the</tspan>
<tspan x="1334.40" dy="25.00">messages</tspan>
</text>
<text class="label" x="1012.28" y="2104.41" font-size="20.0" text-anchor="middle" transform="rotate(0.446 1012.28 2109.41)">
<tspan x="1012.28" dy="0.00">Summarizer</tspan>
<tspan x="1012.28" dy="25.00">Agent</tspan>
<tspan x="1012.28" dy="25.00">(cheaper</tspan>
<tspan x="1012.28" dy="25.00">models)</tspan>
</text>
<text class="label" x="922.81" y="1984.79" font-size="20.0" text-anchor="middle">
<tspan x="922.81" dy="0.00">Distill into</tspan>
<tspan x="922.81" dy="25.00">Facts</tspan>
</text>
<text class="label" x="1484.22" y="1906.52" font-size="20.0" text-anchor="middle">
<tspan x="1484.22" dy="0.00">Only</tspan>
<tspan x="1484.22" dy="25.00">Consolidate</tspan>
<tspan x="1484.22" dy="25.00">after N</tspan>
<tspan x="1484.22" dy="25.00">new</tspan>
<tspan x="1484.22" dy="25.00">charts</tspan>
</text>
<text class="label" x="1169.62" y="1289.48" font-size="20.0" text-anchor="middle">
<tspan x="1169.62" dy="0.00">LLM(GPT,</tspan>
<tspan x="1169.62" dy="25.00">Claude)</tspan>
</text>
<text class="label" x="972.14" y="1146.85" font-size="20.0" text-anchor="middle">
<tspan x="972.14" dy="0.00">Tool</tspan>
<tspan x="972.14" dy="25.00">Calls</tspan>
</text>
<text class="label" x="1089.47" y="1058.01" font-size="26.3" text-anchor="start">
<tspan x="1089.47" dy="0.00">Agentic Tools,</tspan>
<tspan x="1089.47" dy="32.89">e.g.</tspan>
</text>
<text class="label" x="1081.37" y="1101.63" font-size="26.3" text-anchor="start">
<tspan x="1081.37" dy="0.00">-Read/write in</tspan>
<tspan x="1081.37" dy="32.89">CRM</tspan>
</text>
<text class="label" x="1125.35" y="1124.61" font-size="20.0" text-anchor="middle">
<tspan x="1125.35" dy="0.00">Response</tspan>
</text>
<text class="label" x="1364.85" y="1303.06" font-size="30.0" text-anchor="start">
<tspan x="1364.85" dy="0.00">LOOP</tspan>
</text>
<text class="label" x="174.52" y="946.56" font-size="30.0" text-anchor="start">
<tspan x="174.52" dy="0.00">Harness</tspan>
<tspan x="174.52" dy="37.50">e.g. LangGragh, LangChain</tspan>
</text>
<text class="label" x="634.18" y="178.23" font-size="30.0" text-anchor="middle">
<tspan x="634.18" dy="0.00">https://www.youtube.com/watch?v=GrNbuWWJYiI&amp;t=4s</tspan>
</text>
<text class="label" x="3227.00" y="1303.46" font-size="30.0" text-anchor="start">
<tspan x="3227.00" dy="0.00">Determinist Code</tspan>
</text>
<text class="label" x="2577.23" y="994.97" font-size="30.0" text-anchor="start">
<tspan x="2577.23" dy="0.00">EVAL - LLM OPs ( Operation System)</tspan>
</text>
<text class="label" x="2533.87" y="767.86" font-size="30.0" text-anchor="start">
<tspan x="2533.87" dy="0.00">The problem :</tspan>
<tspan x="2533.87" dy="37.50">1. How Does the LLM System Perform</tspan>
<tspan x="2533.87" dy="37.50">2. How to learn from the feedback</tspan>
</text>
<text class="label" x="2578.26" y="1131.85" font-size="24.9" text-anchor="start">
<tspan x="2578.26" dy="0.00">Trace: </tspan>
<tspan x="2578.26" dy="31.16">1. trace per</tspan>
<tspan x="2578.26" dy="31.16">run</tspan>
<tspan x="2578.26" dy="31.16">(lang,</tspan>
<tspan x="2578.26" dy="31.16">langsmith)</tspan>
</text>
<text class="label" x="3057.27" y="1150.27" font-size="24.9" text-anchor="start">
<tspan x="3057.27" dy="0.00">Eval </tspan>
<tspan x="3057.27" dy="31.16">LLM as a judge</tspan>
<tspan x="3057.27" dy="31.16">-&gt;</tspan>
<tspan x="3057.27" dy="31.16">Scores</tspan>
</text>
<text class="label" x="3398.09" y="1156.72" font-size="24.9" text-anchor="start">
<tspan x="3398.09" dy="0.00">Observe : </tspan>
<tspan x="3398.09" dy="31.16">Tokens,</tspan>
<tspan x="3398.09" dy="31.16">Latency,</tspan>
<tspan x="3398.09" dy="31.16">Errors</tspan>
</text>
<text class="label" x="3162.79" y="1489.62" font-size="24.9" text-anchor="start">
<tspan x="3162.79" dy="0.00">Where/ Why it was</tspan>
<tspan x="3162.79" dy="31.16">broken</tspan>
</text>
<text class="label" x="3328.22" y="1674.56" font-size="24.9" text-anchor="middle">
<tspan x="3328.22" dy="0.00">Gate</tspan>
</text>
<text class="label" x="3344.12" y="1859.26" font-size="30.0" text-anchor="middle">
<tspan x="3344.12" dy="0.00">Release</tspan>
</text>
</svg>